<?xml version="1.0" standalone="no"?><!DOCTYPE svg PUBLIC "-//W3C//DTD SVG 1.1//EN" "http://www.w3.org/Graphics/SVG/1.1/DTD/svg11.dtd"><svg t="1612523711267" class="icon" viewBox="0 0 1186 1024" version="1.1" xmlns="http://www.w3.org/2000/svg" p-id="2151" xmlns:xlink="http://www.w3.org/1999/xlink" width="231.640625" height="200"><defs><style type="text/css"></style></defs><path d="M885.057109 409.805037m-36.114953 0a36.114953 36.114953 0 1 0 72.229906 0 36.114953 36.114953 0 1 0-72.229906 0Z" p-id="2152"></path><path d="M1085.856246 351.298813c-39.726448-95.102709-120.383176-165.406484-232.098763-205.132932l29.614262-99.677269a36.114953 36.114953 0 0 0-10.834486-37.559551 35.63342 35.63342 0 0 0-38.763383-5.537626L601.915879 109.569396C326.479173 116.310854 135.069923 266.308291 127.3654 481.553409c-36.596485-10.834486-52.487065-24.076635-55.135494-31.540392s4.815327-25.762 31.299625-52.246298a36.114953 36.114953 0 0 0-50.560934-51.042467C9.389888 390.302962-7.463757 431.474008 3.129963 469.274326S52.487065 536.92967 117.975512 553.783315a35.392654 35.392654 0 0 0 8.667589 0 36.596485 36.596485 0 0 0 5.056093 0c17.335177 98.232672 76.082167 164.684185 139.403718 216.689717v126.402334a126.402335 126.402335 0 0 0 120.383176 127.124634h72.229906a123.513138 123.513138 0 0 0 114.12325-89.08355c13.964448 1.203832 27.68813 0 41.411813 0s27.447364 1.926131 41.411812 0a122.790839 122.790839 0 0 0 115.086316 87.879718h72.229906a126.402335 126.402335 0 0 0 120.383176-127.124633V770.473032a348.388911 348.388911 0 0 0 103.770297-108.826391 120.383176 120.383176 0 0 0 112.919419-120.383176v-72.229906a120.383176 120.383176 0 0 0-99.195737-117.734746z m27.928897 190.927717a48.15327 48.15327 0 0 1-48.15327 48.15327h-39.726448c-22.150504 69.099943-67.896111 98.714204-128.809998 144.459812v161.794988a54.653962 54.653962 0 0 1-48.153271 54.894728h-72.229905a54.413196 54.413196 0 0 1-48.153271-54.894728v-48.15327a479.606573 479.606573 0 0 1-216.689716 0v48.15327a54.653962 54.653962 0 0 1-48.15327 54.894728h-72.229906a54.413196 54.413196 0 0 1-48.15327-54.894728v-161.554222c-88.361251-66.210747-144.459811-132.421493-144.459811-240.766352 0-181.778596 157.220428-292.049585 361.149527-310.107061a35.63342 35.63342 0 0 0 38.763383 6.019159l19.020542-8.667589h4.57456-1.92613l170.703343-78.008298-48.15327 164.924951a36.114953 36.114953 0 0 0 24.076635 45.023308 38.28185 38.28185 0 0 0 10.352953 1.444598A36.355719 36.355719 0 0 0 811.382605 288.940328l21.668972-72.229905c101.362634 37.078018 175.759437 104.974129 200.076838 206.818296h32.503458a48.15327 48.15327 0 0 1 48.15327 48.15327z" p-id="2153"></path></svg>