<?xml version="1.0" standalone="no"?><!DOCTYPE svg PUBLIC "-//W3C//DTD SVG 1.1//EN" "http://www.w3.org/Graphics/SVG/1.1/DTD/svg11.dtd"><svg t="1612523721964" class="icon" viewBox="0 0 1024 1024" version="1.1" xmlns="http://www.w3.org/2000/svg" p-id="2926" xmlns:xlink="http://www.w3.org/1999/xlink" width="200" height="200"><defs><style type="text/css"></style></defs><path d="M168.021 640A40.021 40.021 0 0 0 128 680.021V919.98a40.021 40.021 0 1 0 80.043 0V680.107a40.021 40.021 0 0 0-40.107-40.022z m229.291-256a40.021 40.021 0 0 0-40.021 40.021V919.98a40.021 40.021 0 1 0 80.042 0V424.107a40.021 40.021 0 0 0-40.021-40.022z m458.667 0a40.021 40.021 0 0 0-40.022 40.021V919.98a40.021 40.021 0 1 0 80.043 0V424.107a40.021 40.021 0 0 0-40.021-40.022zM626.688 576a40.021 40.021 0 0 0-40.021 40.021V919.98a40.021 40.021 0 1 0 80.042 0V616.107a40.021 40.021 0 0 0-40.106-40.022zM920.32 64H776.021a40.021 40.021 0 1 0 0 80.043h47.446L631.125 333.995 436.224 139.093a39.51 39.51 0 0 0-56.15 0.256L75.692 443.733a39.85 39.85 0 0 0 56.32 56.32l276.224-276.138L600.32 416a40.277 40.277 0 0 0 23.04 13.483l0.512 0.085 1.11 0.256a39.424 39.424 0 0 0 33.28-10.496l0.511-0.597L880.3 199.936v48.043a40.021 40.021 0 1 0 80.042 0V104.107a40.021 40.021 0 0 0-40.021-40.022z" p-id="2927"></path></svg>